<?xml version="1.0" encoding="UTF-8" standalone="no"?>
<!-- Created with Inkscape (http://www.inkscape.org/) -->

<svg
   xmlns:dc="http://purl.org/dc/elements/1.1/"
   xmlns:cc="http://creativecommons.org/ns#"
   xmlns:rdf="http://www.w3.org/1999/02/22-rdf-syntax-ns#"
   xmlns:svg="http://www.w3.org/2000/svg"
   xmlns="http://www.w3.org/2000/svg"
   xmlns:xlink="http://www.w3.org/1999/xlink"
   xmlns:sodipodi="http://sodipodi.sourceforge.net/DTD/sodipodi-0.dtd"
   xmlns:inkscape="http://www.inkscape.org/namespaces/inkscape"
   width="210mm"
   height="297mm"
   id="svg2"
   version="1.1"
   inkscape:version="0.48.4 r9939"
   sodipodi:docname="AnticipativeSensingSystem.svg">
  <sodipodi:namedview
     id="base"
     pagecolor="#ffffff"
     bordercolor="#666666"
     borderopacity="1.0"
     inkscape:pageopacity="0.0"
     inkscape:pageshadow="2"
     inkscape:zoom="0.7"
     inkscape:cx="474.12022"
     inkscape:cy="875.64799"
     inkscape:document-units="px"
     inkscape:current-layer="layer1"
     showgrid="false"
     inkscape:window-width="1280"
     inkscape:window-height="745"
     inkscape:window-x="-2"
     inkscape:window-y="-3"
     inkscape:window-maximized="1" />
  <defs
     id="defs4">
    <inkscape:perspective
       id="perspective3004"
       inkscape:persp3d-origin="606.16029 : 422.31234 : 1"
       inkscape:vp_z="1304.3594 : 751.46333 : 1"
       inkscape:vp_y="0 : 1876.6409 : 0"
       inkscape:vp_x="-89.357857 : 730.01601 : 1"
       sodipodi:type="inkscape:persp3d" />
    <pattern
       id="pattern3030"
       patternTransform="translate(415.81165,595.66581)"
       height="139.2735"
       width="189.45434"
       patternUnits="userSpaceOnUse">
      <text
         xml:space="preserve"
         style="font-size:38.56734467px;font-style:normal;font-variant:normal;font-weight:normal;font-stretch:normal;text-align:center;line-height:125%;letter-spacing:0px;word-spacing:0px;text-anchor:middle;fill:#000000;fill-opacity:1;stroke:none;font-family:Arial;-inkscape-font-specification:Arial"
         x="98.63678"
         y="31.215904"
         id="text3020"
         sodipodi:linespacing="125%"
         transform="matrix(0.96387714,-0.02430686,0.02614625,1.0368173,0,0)"><tspan
           sodipodi:role="line"
           id="tspan3022"
           x="98.63678"
           y="31.215904">Anticipative</tspan><tspan
           sodipodi:role="line"
           x="98.63678"
           y="79.425072"
           id="tspan3024">Sensing</tspan><tspan
           sodipodi:role="line"
           x="98.63678"
           y="127.63424"
           id="tspan3026">System</tspan></text>
    </pattern>
    <inkscape:perspective
       id="perspective3004-9"
       inkscape:persp3d-origin="758.94334 : 274.08246 : 1"
       inkscape:vp_z="1044.292 : 408.60397 : 1"
       inkscape:vp_y="0 : 766.96888 : 0"
       inkscape:vp_x="474.69036 : 399.83861 : 1"
       sodipodi:type="inkscape:persp3d" />
    <linearGradient
       x1="164.5"
       x2="225.5"
       gradientTransform="matrix(13.609,0,0,13.595,-2204.2,-4187.6)"
       y1="340.57"
       gradientUnits="userSpaceOnUse"
       y2="340.57"
       id="linearGradient3648">
      <stop
         offset="0"
         stop-color="#fff"
         id="stop3620" />
      <stop
         offset="1"
         stop-color="#7ef484"
         id="stop3622" />
    </linearGradient>
    <linearGradient
       x1="166.86"
       y1="299.51"
       x2="436"
       gradientUnits="userSpaceOnUse"
       y2="299.51"
       id="linearGradient3608">
      <stop
         offset="0"
         stop-color="#3cef45"
         id="stop3604"
         style="stop-color:#438dca;stop-opacity:1;" />
      <stop
         offset="1"
         stop-color="#fff"
         id="stop3606" />
    </linearGradient>
    <linearGradient
       inkscape:collect="always"
       xlink:href="#linearGradient3608"
       id="linearGradient4492"
       gradientUnits="userSpaceOnUse"
       x1="166.86"
       y1="299.51"
       x2="436"
       y2="299.51"
       gradientTransform="matrix(0.83423955,0,0,0.61606936,80.981729,-5.0177166)" />
    <linearGradient
       inkscape:collect="always"
       xlink:href="#linearGradient3608"
       id="linearGradient4495"
       gradientUnits="userSpaceOnUse"
       gradientTransform="matrix(3.7155275,0,0,3.7117053,-392.10985,-979.02979)"
       x1="164.5"
       y1="340.57001"
       x2="225.5"
       y2="340.57001" />
    <filter
       height="3.0367"
       x="-.090278"
       width="1.1806"
       y="-1.0183"
       id="filter3347">
      <feGaussianBlur
         stdDeviation="7.5769449"
         id="feGaussianBlur3349" />
    </filter>
    <filter
       id="filter3232">
      <feGaussianBlur
         stdDeviation="4.3283459"
         id="feGaussianBlur3234" />
    </filter>
  </defs>
  <metadata
     id="metadata7">
    <rdf:RDF>
      <cc:Work
         rdf:about="">
        <dc:format>image/svg+xml</dc:format>
        <dc:type
           rdf:resource="http://purl.org/dc/dcmitype/StillImage" />
        <dc:title />
      </cc:Work>
    </rdf:RDF>
  </metadata>
  <g
     id="layer1"
     inkscape:groupmode="layer"
     inkscape:label="Ebene 1">
    <g
       inkscape:corner7="0.98167104 : -0.32264395 : 0.90360272 : 1"
       inkscape:corner0="2.578723 : 0.063973316 : 0 : 1"
       inkscape:perspectiveID="#perspective3004"
       id="g3006"
       style="fill:#ffd5d5;stroke:#666666;stroke-width:2.29999995;stroke-miterlimit:4;stroke-opacity:1;stroke-dasharray:none;stroke-dashoffset:0"
       sodipodi:type="inkscape:box3d">
      <path
         d="M 104.99028,577.51834 261.61773,783.16459 588.18092,632.12983 346.77396,521.75396 z"
         inkscape:box3dsidetype="13"
         style="fill:#afafde;fill-rule:evenodd;stroke:none"
         id="path3016"
         sodipodi:type="inkscape:box3dside" />
      <path
         d="m 104.99028,374.78072 0,202.73762 241.78368,-55.76438 0,-161.86726 z"
         inkscape:box3dsidetype="6"
         style="fill:#353564;fill-rule:evenodd;stroke:none"
         id="path3008"
         sodipodi:type="inkscape:box3dside" />
      <path
         d="m 346.77396,359.8867 241.40696,20.77937 0,251.46376 -241.40696,-110.37587 z"
         inkscape:box3dsidetype="11"
         style="fill:#e9e9ff;fill-rule:evenodd;stroke:none"
         id="path3018"
         sodipodi:type="inkscape:box3dside" />
      <path
         d="M 104.99028,374.78072 261.61773,417.03834 588.18092,380.66607 346.77396,359.8867 z"
         inkscape:box3dsidetype="5"
         style="fill:#4d4d9f;fill-rule:evenodd;stroke:none"
         id="path3010"
         sodipodi:type="inkscape:box3dside" />
      <path
         d="m 261.61773,417.03834 0,366.12625 326.56319,-151.03476 0,-251.46376 z"
         inkscape:box3dsidetype="14"
         style="fill:#d7d7ff;fill-rule:evenodd;stroke:none"
         id="path3014"
         sodipodi:type="inkscape:box3dside" />
      <path
         d="m 104.99028,374.78072 156.62745,42.25762 0,366.12625 -156.62745,-205.64625 z"
         inkscape:box3dsidetype="3"
         style="fill:#8686bf;fill-rule:evenodd;stroke:none"
         id="path3012"
         sodipodi:type="inkscape:box3dside" />
    </g>
    <g
       id="text3691"
       style="font-size:40px;font-style:normal;font-variant:normal;font-weight:normal;font-stretch:normal;text-align:center;line-height:125%;letter-spacing:0px;word-spacing:0px;text-anchor:middle;fill:#000000;fill-opacity:1;stroke:none;font-family:Arial;-inkscape-font-specification:Arial"
       transform="matrix(1.7562863,0,0,1.7562863,-61.063715,-597.84642)">
      <path
         id="path3704"
         d="m 190,632.25172 c 0,0 13.08278,-46.9121 13.08278,-46.9121 0,0 4.70194,-0.47019 4.70194,-0.47019 0,0 13.60784,41.67859 13.60784,41.67859 0,0 -4.81594,0.87501 -4.81594,0.87501 0,0 -3.91144,-12.71368 -3.91144,-12.71368 0,0 -13.95613,2.18588 -13.95613,2.18588 0,0 -3.75902,14.45712 -3.75902,14.45712 0,0 -4.95003,0.89937 -4.95003,0.89937 m 9.99427,-20.41033 c 0,0 11.29487,-1.66909 11.29487,-1.66909 0,0 -3.5164,-11.6846 -3.5164,-11.6846 -1.07435,-3.55524 -1.87491,-6.48793 -2.40098,-8.79567 -0.40389,2.8511 -0.98328,5.71387 -1.73993,8.5911 0,0 -3.63756,13.55826 -3.63756,13.55826"
         inkscape:connector-curvature="0" />
      <path
         id="path3706"
         d="m 224.27038,626.02516 c 0,0 -0.43407,-31.11431 -0.43407,-31.11431 0,0 3.397,-0.41514 3.397,-0.41514 0,0 0.0667,4.34668 0.0667,4.34668 1.56897,-3.56082 3.86381,-5.5125 6.86864,-5.87576 1.2944,-0.15644 2.48156,0.0297 3.56341,0.55637 1.09079,0.50445 1.91042,1.24688 2.46139,2.22781 0.55027,0.97979 0.94582,2.17572 1.18724,3.58905 0.15164,0.91878 0.25237,2.55024 0.30221,4.89764 0,0 0.39382,18.55242 0.39382,18.55242 0,0 -3.61336,0.65651 -3.61336,0.65651 0,0 -0.36516,-18.49002 -0.36516,-18.49002 -0.0411,-2.08135 -0.21213,-3.61119 -0.51312,-4.59241 -0.30148,-1.00031 -0.8201,-1.75453 -1.5571,-2.26337 -0.72562,-0.53065 -1.57564,-0.73342 -2.55159,-0.60704 -1.56656,0.20291 -2.91803,1.07654 -4.05203,2.62649 -1.12653,1.55683 -1.66165,4.30551 -1.60049,8.24906 0,0 0.26307,16.96258 0.26307,16.96258 0,0 -3.8166,0.69344 -3.8166,0.69344"
         inkscape:connector-curvature="0" />
      <path
         id="path3708"
         d="m 254.96899,615.9479 c 0,0 0.60887,4.33308 0.60887,4.33308 -0.95073,0.47159 -1.80778,0.7775 -2.56995,0.91659 -1.24996,0.2281 -2.23087,0.11517 -2.93922,-0.34042 -0.71,-0.45665 -1.21905,-1.12978 -1.52599,-2.01886 -0.30752,-0.90818 -0.49739,-2.88278 -0.5694,-5.91788 0,0 -0.40406,-17.02995 -0.40406,-17.02995 0,0 -2.55703,0.3323 -2.55703,0.3323 0,0 -0.0882,-3.88901 -0.0882,-3.88901 0,0 2.5534,-0.31204 2.5534,-0.31204 0,0 -0.17164,-7.23446 -0.17164,-7.23446 0,0 3.33863,-3.30533 3.33863,-3.30533 0,0 0.25448,10.12165 0.25448,10.12165 0,0 3.41249,-0.41703 3.41249,-0.41703 0,0 0.1013,3.81455 0.1013,3.81455 0,0 -3.4172,0.4441 -3.4172,0.4441 0,0 0.43217,17.1882 0.43217,17.1882 0.036,1.43174 0.11658,2.34328 0.24173,2.73337 0.13786,0.38785 0.34369,0.6798 0.6173,0.87577 0.28608,0.19361 0.68309,0.24641 1.19046,0.15865 0.37983,-0.0657 0.87736,-0.21696 1.49182,-0.45328"
         inkscape:connector-curvature="0" />
      <path
         id="path3710"
         d="m 257.43678,585.47537 c 0,0 -0.15508,-5.55564 -0.15508,-5.55564 0,0 3.29074,-0.32908 3.29074,-0.32908 0,0 0.16157,5.51757 0.16157,5.51757 0,0 -3.29723,0.36715 -3.29723,0.36715 m 0.95879,34.3496 c 0,0 -0.81055,-29.03849 -0.81055,-29.03849 0,0 3.30344,-0.40371 3.30344,-0.40371 0,0 0.84437,28.83585 0.84437,28.83585 0,0 -3.33726,0.60635 -3.33726,0.60635"
         inkscape:connector-curvature="0" />
      <path
         id="path3712"
         d="m 278.55493,605.84045 c 0,0 3.02588,0.12024 3.02588,0.12024 -0.2068,3.24191 -0.9547,5.89458 -2.25014,7.95952 -1.29418,2.06039 -2.94763,3.27979 -4.96616,3.64929 -2.55349,0.46742 -4.67087,-0.43105 -6.33707,-2.70689 -1.66232,-2.30622 -2.57046,-5.86224 -2.71844,-10.64619 -0.0954,-3.08339 0.16287,-5.82275 0.77237,-8.2155 0.60664,-2.38143 1.57801,-4.22149 2.90959,-5.52206 1.33389,-1.31088 2.79424,-2.05939 4.37976,-2.25108 1.98711,-0.24018 3.62744,0.32516 4.92947,1.69035 1.29613,1.34251 2.16796,3.37565 2.6197,6.10514 0,0 -2.93804,1.11731 -2.93804,1.11731 -0.35147,-1.81972 -0.90824,-3.14919 -1.67174,-3.9903 -0.75385,-0.8445 -1.64805,-1.20082 -2.68472,-1.06703 -1.57518,0.20332 -2.83402,1.23068 -3.7726,3.08883 -0.94443,1.8509 -1.35814,4.65309 -1.23688,8.40746 0.12337,3.81965 0.69971,6.52213 1.72671,8.09534 1.02429,1.56911 2.30971,2.21687 3.85075,1.9477 1.23028,-0.21487 2.23224,-0.96827 3.00809,-2.25676 0.77243,-1.28281 1.22283,-3.12491 1.35347,-5.52537"
         inkscape:connector-curvature="0" />
      <path
         id="path3714"
         d="m 283.29288,582.59628 c 0,0 -0.20326,-5.25734 -0.20326,-5.25734 0,0 2.95493,-0.2955 2.95493,-0.2955 0,0 0.20837,5.22323 0.20837,5.22323 0,0 -2.96004,0.32961 -2.96004,0.32961 m 1.2556,32.47698 c 0,0 -1.06134,-27.45224 -1.06134,-27.45224 0,0 2.96492,-0.36234 2.96492,-0.36234 0,0 1.08793,27.27106 1.08793,27.27106 0,0 -2.99151,0.54352 -2.99151,0.54352"
         inkscape:connector-curvature="0" />
      <path
         id="path3716"
         d="m 292.47522,624.22031 c 0,0 -1.56575,-37.50636 -1.56575,-37.50636 0,0 2.61751,-0.31988 2.61751,-0.31988 0,0 0.14796,3.45418 0.14796,3.45418 0.55523,-1.43058 1.20207,-2.52464 1.93991,-3.28408 0.73421,-0.77294 1.64186,-1.22376 2.72123,-1.35427 1.40369,-0.16965 2.66133,0.25477 3.7763,1.26957 1.11071,1.01101 1.98184,2.525 2.61621,4.54384 0.63313,2.00115 1.00884,4.24412 1.12764,6.73378 0.12764,2.67557 -0.055,5.1421 -0.54987,7.40275 -0.4877,2.25247 -1.27675,4.06475 -2.37054,5.43557 -1.09097,1.36063 -2.27723,2.16089 -3.55927,2.39558 -0.94277,0.17257 -1.8088,0.007 -2.5968,-0.49881 -0.77966,-0.50899 -1.43592,-1.21289 -1.96768,-2.11154 0,0 0.56871,13.24427 0.56871,13.24427 0,0 -2.90556,0.5954 -2.90556,0.5954 m 1.61396,-24.32677 c 0.14815,3.45924 0.69929,5.949 1.65129,7.45904 0.9496,1.50626 2.04428,2.14953 3.28075,1.93355 1.25047,-0.21839 2.27454,-1.2485 3.07424,-3.08386 0.80492,-1.84395 1.12367,-4.52614 0.95982,-8.04632 -0.15575,-3.3454 -0.70047,-5.7852 -1.63621,-7.32915 -0.92782,-1.54907 -1.99044,-2.24809 -3.19098,-2.09363 -1.19655,0.154 -2.22387,1.18887 -3.08076,3.11209 -0.85187,1.91591 -1.20588,4.59888 -1.05815,8.04828"
         inkscape:connector-curvature="0" />
      <path
         id="path3718"
         d="m 319.7351,605.49849 c -0.8807,1.53132 -1.75386,2.66206 -2.61879,3.38832 -0.85927,0.72788 -1.80515,1.18731 -2.83836,1.37644 -1.71662,0.31423 -3.07982,-0.13947 -4.08175,-1.36582 -1.00588,-1.24662 -1.56319,-2.96389 -1.66943,-5.14596 -0.0622,-1.27789 0.0559,-2.46793 0.35365,-3.5691 0.30621,-1.11629 0.72619,-2.03429 1.25928,-2.75439 0.54131,-0.71932 1.15742,-1.29301 1.84779,-1.72159 0.50723,-0.30287 1.27665,-0.63578 2.3054,-0.99798 2.08066,-0.72459 3.5893,-1.44197 4.53793,-2.15491 -0.0217,-0.58779 -0.0368,-0.96079 -0.0452,-1.1192 -0.0926,-1.74101 -0.39935,-2.93371 -0.92102,-3.58082 -0.7073,-0.87901 -1.71119,-1.23538 -3.01635,-1.06687 -1.22595,0.15832 -2.11955,0.63588 -2.67698,1.43402 -0.55032,0.78348 -0.92269,2.10401 -1.11615,3.9636 0,0 -2.63656,-0.21791 -2.63656,-0.21791 0.14869,-1.86322 0.4679,-3.38645 0.95669,-4.57031 0.48633,-1.19588 1.22454,-2.15286 2.21207,-2.87122 0.98165,-0.73058 2.13314,-1.17457 3.45224,-1.33405 1.30155,-0.15731 2.36664,-0.0322 3.19904,0.37346 0.82962,0.40441 1.45219,0.96737 1.86944,1.68926 0.41591,0.70545 0.73005,1.62881 0.94282,2.77091 0.12342,0.71134 0.2363,2.01041 0.33877,3.8993 0,0 0.30832,5.68448 0.30832,5.68448 0.21581,3.97917 0.40459,6.49769 0.56585,7.5461 0.16983,1.03124 0.44084,2.00443 0.8128,2.91886 0,0 -2.66045,0.48337 -2.66045,0.48337 -0.31392,-0.85003 -0.54101,-1.86965 -0.68107,-3.05799 m -0.72575,-9.58722 c -0.89846,0.77886 -2.2761,1.53812 -4.14232,2.28 -1.06435,0.42548 -1.81494,0.83571 -2.24836,1.22973 -0.43445,0.39497 -0.75898,0.92852 -0.97311,1.60082 -0.2153,0.65716 -0.30401,1.36844 -0.26585,2.13337 0.0585,1.17277 0.37356,2.10552 0.94441,2.79648 0.57964,0.68802 1.38304,0.94157 2.40737,0.76226 1.00981,-0.17678 1.88516,-0.69642 2.62721,-1.55684 0.73807,-0.87286 1.25396,-1.97176 1.54937,-3.29675 0.22429,-1.02009 0.2858,-2.47834 0.18502,-4.37415 0,0 -0.0837,-1.57492 -0.0837,-1.57492"
         inkscape:connector-curvature="0" />
      <path
         id="path3720"
         d="m 331.34801,602.76735 c 0,0 0.56678,3.65269 0.56678,3.65269 -0.66986,0.37418 -1.27688,0.61127 -1.82038,0.71045 -0.89078,0.16255 -1.59805,0.0453 -2.11973,-0.35286 -0.52271,-0.39893 -0.90772,-0.97459 -1.15432,-1.72658 -0.24757,-0.76798 -0.44285,-2.42723 -0.58558,-4.97359 0,0 -0.80185,-14.30599 -0.80185,-14.30599 0,0 -1.82213,0.2368 -1.82213,0.2368 0,0 -0.18072,-3.26861 -0.18072,-3.26861 0,0 1.82044,-0.22248 1.82044,-0.22248 0,0 -0.34133,-6.08976 -0.34133,-6.08976 0,0 2.29831,-2.74005 2.29831,-2.74005 0,0 0.48688,8.53115 0.48688,8.53115 0,0 2.44261,-0.2985 2.44261,-0.2985 0,0 0.18681,3.21585 0.18681,3.21585 0,0 -2.4448,0.31772 -2.4448,0.31772 0,0 0.82495,14.455 0.82495,14.455 0.0686,1.20264 0.15373,1.96944 0.25524,2.29952 0.11058,0.32849 0.2671,0.57796 0.46946,0.74838 0.21127,0.16873 0.49808,0.22171 0.86009,0.15909 0.27108,-0.0469 0.62432,-0.16308 1.05927,-0.34823"
         inkscape:connector-curvature="0" />
      <path
         id="path3722"
         d="m 332.22015,577.14819 c 0,0 -0.27731,-4.69458 -0.27731,-4.69458 0,0 2.36843,-0.23684 2.36843,-0.23684 0,0 0.28033,4.66736 0.28033,4.66736 0,0 -2.37145,0.26406 -2.37145,0.26406 m 1.71026,28.9529 c 0,0 -1.44533,-24.46803 -1.44533,-24.46803 0,0 2.37432,-0.29016 2.37432,-0.29016 0,0 1.46094,24.32396 1.46094,24.32396 0,0 -2.38993,0.43423 -2.38993,0.43423"
         inkscape:connector-curvature="0" />
      <path
         id="path3724"
         d="m 343.70984,604.32427 c 0,0 -6.68469,-23.24605 -6.68469,-23.24605 0,0 2.45118,-0.29955 2.45118,-0.29955 0,0 3.80298,13.88252 3.80298,13.88252 0.41066,1.49669 0.79971,3.05727 1.16725,4.68213 0.12198,-1.29626 0.30737,-2.85773 0.55575,-4.68195 0,0 2.01395,-14.80414 2.01395,-14.80414 0,0 2.27279,-0.27776 2.27279,-0.27776 0,0 -3.45157,24.35823 -3.45157,24.35823 0,0 -2.12764,0.38657 -2.12764,0.38657"
         inkscape:connector-curvature="0" />
      <path
         id="path3726"
         d="m 360.91344,593.71055 c 0,0 2.18463,0.144 2.18463,0.144 -0.17113,2.38918 -0.669,4.31306 -1.49676,5.77143 -0.83263,1.46689 -1.97418,2.33599 -3.42913,2.60233 -1.84804,0.33828 -3.39914,-0.44265 -4.64373,-2.35074 -1.2423,-1.93159 -1.9923,-4.80825 -2.24585,-8.61547 -0.26152,-3.92693 0.0945,-7.04108 1.06207,-9.3392 0.96045,-2.28119 2.31158,-3.52111 4.04714,-3.73093 1.66579,-0.20135 3.08854,0.66493 4.27556,2.59226 1.18268,1.92034 1.9056,4.74263 2.17263,8.48078 0.0163,0.22781 0.0369,0.57016 0.0618,1.02716 0,0 -9.31228,1.43712 -9.31228,1.43712 0.25306,2.54496 0.78288,4.4409 1.58763,5.68224 0.80273,1.23825 1.73142,1.76398 2.7833,1.58025 0.77931,-0.13611 1.41575,-0.62867 1.91038,-1.47587 0.49291,-0.84429 0.84019,-2.11329 1.04265,-3.80536 m -7.4223,-5.23592 c 0,0 7.00448,-1.02295 7.00448,-1.02295 -0.22775,-1.90066 -0.59188,-3.29821 -1.0931,-4.19522 -0.77227,-1.39582 -1.69371,-2.0259 -2.76745,-1.88732 -0.97696,0.12611 -1.7632,0.83106 -2.35702,2.11864 -0.58847,1.29223 -0.85145,2.95491 -0.78691,4.98685"
         inkscape:connector-curvature="0" />
    </g>
    <g
       style="font-size:40px;font-style:normal;font-variant:normal;font-weight:normal;font-stretch:normal;text-align:center;line-height:125%;letter-spacing:0px;word-spacing:0px;text-anchor:middle;fill:#000000;fill-opacity:1;stroke:none;font-family:Arial;-inkscape-font-specification:Arial"
       id="text3695"
       transform="matrix(1.7562863,0,0,1.7562863,-58.554734,-605.37336)">
      <path
         d="m 188.57143,680.93955 c 0,0 6.71294,-2.39194 6.71294,-2.39194 0.31347,2.549 1.03535,4.51409 2.16209,5.89293 1.1454,1.34199 2.90086,2.19144 5.25334,2.55038 2.32998,0.33207 4.9248,0.0741 7.77563,-0.76411 2.50346,-0.73606 4.69214,-1.75899 6.57436,-3.06672 1.86732,-1.29739 3.24189,-2.71968 4.13218,-4.27009 0.90847,-1.57328 1.36141,-3.12735 1.36144,-4.66679 -3e-5,-1.562 -0.43138,-2.80395 -1.29642,-3.72841 -0.86832,-0.95054 -2.308,-1.56171 -4.32958,-1.83263 -1.30562,-0.18766 -4.21914,-0.25115 -8.80004,-0.18881 -4.66956,0.04 -7.99471,-0.20845 -9.91864,-0.7492 -2.51656,-0.68951 -4.41486,-1.85553 -5.68033,-3.49907 -1.24745,-1.68176 -1.87351,-3.7469 -1.87351,-6.18913 0,-2.68395 0.77313,-5.35329 2.31228,-7.99581 1.52968,-2.65016 3.74668,-4.86327 6.63258,-6.63586 2.85236,-1.7519 5.98436,-2.95827 9.38466,-3.62724 3.69016,-0.72588 6.89241,-0.74737 9.62523,-0.0786 2.72314,0.63414 4.79331,1.95373 6.22738,3.95498 1.42521,1.9891 2.18743,4.41371 2.29314,7.282 0,0 -5.9707,1.84096 -5.9707,1.84096 -0.32539,-3.08355 -1.435,-5.22774 -3.33996,-6.43664 -1.89834,-1.22328 -4.74089,-1.44388 -8.56148,-0.64498 -4.04438,0.84581 -7.04039,2.24001 -8.94796,4.18324 -1.89874,1.92959 -2.85361,3.98519 -2.8536,6.15563 -1e-5,1.88428 0.68071,3.27668 2.03658,4.17343 1.32478,0.89751 4.7454,1.32195 10.17481,1.2777 5.3318,-0.0717 8.91985,0.11206 10.84044,0.5473 2.7658,0.64535 4.78699,1.82455 6.08245,3.53608 1.28821,1.67973 1.92966,3.83474 1.9297,6.47198 -4e-5,2.61497 -0.70467,5.28602 -2.12036,8.02565 -1.42445,2.73396 -3.49145,5.16638 -6.21805,7.3032 -2.73662,2.13228 -5.8619,3.74281 -9.39073,4.82486 -4.54868,1.39476 -8.43295,1.90099 -11.61871,1.49481 -3.20355,-0.41872 -5.75526,-1.74621 -7.6343,-3.99105 -1.86862,-2.29308 -2.85774,-5.21637 -2.95686,-8.75805"
         id="path3885"
         inkscape:connector-curvature="0" />
      <path
         d="m 257.20164,666.41972 c 0,0 5.0944,-0.71182 5.0944,-0.71182 -0.79548,3.60721 -2.27671,6.67075 -4.4579,9.1996 -2.20342,2.55459 -5.05068,4.3742 -8.56674,5.45207 -4.50947,1.38242 -8.15607,0.94585 -10.89517,-1.35176 -2.75232,-2.35365 -4.14105,-6.39974 -4.14105,-12.1167 0,-5.9156 1.40911,-10.85059 4.20139,-14.76862 2.75823,-3.8702 6.28625,-6.27635 10.54727,-7.23975 4.04859,-0.91527 7.30127,-0.12762 9.79182,2.32919 2.46211,2.42886 3.68269,6.35617 3.68272,11.80264 -3e-5,0.33136 -0.01,0.83097 -0.027,1.49834 0,0 -22.55147,6.08113 -22.55147,6.08113 0.19974,3.75953 1.18579,6.39885 2.94791,7.91154 1.74834,1.50091 3.90985,1.86464 6.47237,1.10658 1.8883,-0.55862 3.48732,-1.58224 4.8032,-3.06774 1.30795,-1.47658 2.33942,-3.51822 3.0983,-6.12472 m -17.02224,-4.74291 c 0,0 17.07767,-4.42185 17.07767,-4.42185 -0.2218,-2.75269 -0.8514,-4.70441 -1.89235,-5.85718 -1.60839,-1.80444 -3.71146,-2.40514 -6.32333,-1.78665 -2.39099,0.56625 -4.42615,1.94342 -6.09533,4.13915 -1.66187,2.20738 -2.58714,4.85305 -2.76666,7.92653"
         id="path3887"
         inkscape:connector-curvature="0" />
      <path
         d="m 268.35353,673.77452 c 0,0 0,-32.53568 0,-32.53568 0,0 4.21931,-0.96126 4.21931,-0.96126 0,0 0,4.57989 0,4.57989 2.00161,-3.9995 4.85925,-6.40636 8.53753,-7.23801 1.57746,-0.35659 3.01285,-0.33703 4.30905,0.0548 1.30397,0.36615 2.27248,1.02015 2.91029,1.96156 0.63575,0.93849 1.0796,2.12345 1.33282,3.55574 0.15806,0.93065 0.23704,2.60713 0.23707,5.02995 0,0 0,18.98541 0,18.98541 0,0 -4.31068,1.31397 -4.31068,1.31397 0,0 0,-18.98379 0,-18.98379 -10e-6,-2.15499 -0.16952,-3.7193 -0.50895,-4.69416 -0.34004,-0.99606 -0.94862,-1.70319 -1.82818,-2.12148 -0.86701,-0.44369 -1.89415,-0.52566 -3.08384,-0.24326 -1.91463,0.45455 -3.58565,1.5822 -5.00691,3.38902 -1.41399,1.81512 -2.12458,4.78746 -2.12457,8.9078 0,0 0,17.57208 0,17.57208 0,0 -4.68294,1.42745 -4.68294,1.42745"
         id="path3889"
         inkscape:connector-curvature="0" />
      <path
         d="m 294.69864,656.63785 c 0,0 4.07476,-1.94448 4.07476,-1.94448 0.22643,1.96353 0.85154,3.33624 1.87152,4.11674 1.02954,0.77207 2.45296,0.88717 4.26158,0.35212 1.80631,-0.53435 3.13559,-1.39024 3.99759,-2.56742 0.85809,-1.19028 1.2857,-2.4091 1.28572,-3.66045 -2e-5,-1.12252 -0.37769,-1.90071 -1.13527,-2.33587 -0.5307,-0.29678 -1.85663,-0.49721 -3.99443,-0.60156 -2.91744,-0.14542 -4.96952,-0.4041 -6.12818,-0.77601 -1.15037,-0.3971 -2.03283,-1.12572 -2.64374,-2.18657 -0.59746,-1.08716 -0.89688,-2.37754 -0.89688,-3.86871 0,-1.35732 0.2457,-2.66887 0.7362,-3.93235 0.50455,-1.28294 1.18288,-2.40364 2.03321,-3.36146 0.63533,-0.73456 1.49429,-1.42376 2.57394,-2.06675 1.08856,-0.66155 2.245,-1.12986 3.46805,-1.40642 1.82744,-0.41311 3.41415,-0.43837 4.76587,-0.0806 1.35642,0.35207 2.34975,1.0222 2.98561,2.00978 0.63369,0.96606 1.06902,2.35987 1.30734,4.18213 0,0 -3.73493,1.58872 -3.73493,1.58872 -0.17154,-1.46948 -0.6727,-2.52832 -1.50609,-3.17766 -0.8226,-0.65558 -1.99764,-0.80389 -3.53158,-0.44066 -1.82735,0.43277 -3.14214,1.13013 -3.9338,2.09194 -0.79489,0.96578 -1.19355,1.97059 -1.19354,3.01146 -10e-6,0.66241 0.16557,1.21718 0.49632,1.66372 0.33017,0.46473 0.84683,0.78681 1.54851,0.96636 0.40193,0.0857 1.58063,0.21604 3.52203,0.3899 2.77497,0.22835 4.68384,0.50497 5.75193,0.83093 1.0762,0.30211 1.91453,0.93875 2.5181,1.90887 0.6016,0.96706 0.90169,2.28723 0.90171,3.96282 -2e-5,1.63919 -0.36997,3.29482 -1.11204,4.97185 -0.73094,1.66115 -1.79724,3.10803 -3.20455,4.34263 -1.41781,1.22529 -3.03455,2.11846 -4.85515,2.67658 -3.05319,0.93598 -5.41634,0.84695 -7.06341,-0.28537 -1.64569,-1.14641 -2.70435,-3.27174 -3.1664,-6.37423"
         id="path3891"
         inkscape:connector-curvature="0" />
      <path
         d="m 318.54496,624.48558 c 0,0 0,-5.58846 0,-5.58846 0,0 3.64136,-0.72293 3.64136,-0.72293 0,0 0,5.53381 0,5.53381 0,0 -3.64136,0.77758 -3.64136,0.77758 m 0,33.98968 c 0,0 0,-28.67121 0,-28.67121 0,0 3.64136,-0.82959 3.64136,-0.82959 0,0 0,28.39085 0,28.39085 0,0 -3.64136,1.10995 -3.64136,1.10995"
         id="path3893"
         inkscape:connector-curvature="0" />
      <path
         d="m 327.61401,655.71085 c 0,0 0,-27.97294 0,-27.97294 0,0 3.12325,-0.71155 3.12325,-0.71155 0,0 0,3.94313 0,3.94313 1.48471,-3.38848 3.60782,-5.38548 6.34657,-6.00471 1.1766,-0.26597 2.24832,-0.21089 3.21698,0.16241 0.97531,0.35163 1.70027,0.94359 2.17795,1.77566 0.47634,0.82984 0.80901,1.86808 0.99884,3.11537 0.11851,0.81037 0.17775,2.26439 0.17776,4.36244 0,0 0,16.44049 0,16.44049 0,0 -3.22781,0.9839 -3.22781,0.9839 0,0 0,-16.41544 0,-16.41544 -2e-5,-1.86343 -0.12676,-3.22104 -0.3805,-4.07374 -0.25413,-0.87086 -0.70883,-1.49938 -1.36567,-1.88568 -0.64708,-0.40767 -1.4132,-0.50723 -2.29989,-0.29676 -1.42553,0.33844 -2.66819,1.26362 -3.72405,2.78018 -1.04944,1.5225 -1.57647,4.06109 -1.57646,7.60911 0,0 0,15.13133 0,15.13133 0,0 -3.46697,1.0568 -3.46697,1.0568"
         id="path3895"
         inkscape:connector-curvature="0" />
      <path
         d="m 347.93711,651.70425 c 0,0 3.00647,-0.29476 3.00647,-0.29476 0.12483,1.29146 0.47048,2.15005 1.03562,2.57543 0.75432,0.57467 1.77908,0.65 3.06934,0.23033 1.37935,-0.44865 2.43648,-1.1954 3.17741,-2.23952 0.73763,-1.03948 1.23476,-2.31963 1.49356,-3.84209 0.15076,-0.92701 0.22071,-2.79633 0.20997,-5.60871 -1.27466,2.60797 -2.87636,4.21234 -4.81447,4.80311 -2.44329,0.74476 -4.35886,0.0298 -5.72819,-2.16624 -1.3804,-2.21376 -2.0748,-5.16254 -2.07479,-8.83288 -10e-6,-2.52437 0.31861,-4.92969 0.95406,-7.2096 0.63311,-2.28798 1.54411,-4.14649 2.72857,-5.57441 1.18752,-1.42056 2.56811,-2.30571 4.13696,-2.66044 2.06924,-0.46778 3.75617,0.3705 5.07202,2.49782 0,0 0,-3.06907 0,-3.06907 0,0 2.6535,-0.60453 2.6535,-0.60453 0,0 0,21.83441 0,21.83441 -1e-5,3.93242 -0.2698,6.80017 -0.81069,8.60772 -0.53204,1.82598 -1.38688,3.41262 -2.56954,4.76271 -1.18032,1.35613 -2.64839,2.3318 -4.41175,2.92442 -2.11834,0.71188 -3.84934,0.5876 -5.18069,-0.38533 -1.34183,-0.96403 -1.99359,-2.88226 -1.94736,-5.74837 m 2.56313,-16.54389 c -1e-5,3.43886 0.47171,5.81483 1.41124,7.1225 0.93434,1.30047 2.09784,1.74272 3.48573,1.33466 1.36552,-0.40149 2.50226,-1.50027 3.41478,-3.29142 0.90751,-1.79735 1.35941,-4.32295 1.35942,-7.58417 -10e-6,-3.11731 -0.46808,-5.35082 -1.40818,-6.70628 -0.93458,-1.36573 -2.0718,-1.89326 -3.41579,-1.57492 -1.33255,0.31569 -2.47356,1.38659 -3.41903,3.21847 -0.95078,1.82579 -1.42818,4.32207 -1.42817,7.48116"
         id="path3897"
         inkscape:connector-curvature="0" />
    </g>
    <g
       id="text3699"
       style="font-size:40px;font-style:normal;font-variant:normal;font-weight:normal;font-stretch:normal;text-align:center;line-height:125%;letter-spacing:0px;word-spacing:0px;text-anchor:middle;fill:#000000;fill-opacity:1;stroke:none;font-family:Arial;-inkscape-font-specification:Arial"
       transform="matrix(1.7562863,0,0,1.7562863,-61.063715,-612.9003)">
      <path
         id="path4068"
         d="m 189.90714,748.11573 c 0,0 6.75409,-3.15865 6.75409,-3.15865 0.20526,2.40756 0.84015,4.2014 1.90144,5.38062 1.08152,1.14165 2.79021,1.73289 5.11433,1.77725 2.30485,0.0214 4.90084,-0.55817 7.78012,-1.72935 2.5315,-1.02972 4.76364,-2.29642 6.70395,-3.79947 1.92689,-1.49267 3.36725,-3.04337 4.32879,-4.65606 0.98142,-1.63822 1.50534,-3.19934 1.5741,-4.68763 0.0697,-1.51061 -0.30796,-2.65518 -1.13528,-3.43542 -0.82931,-0.80496 -2.24684,-1.20597 -4.26213,-1.20087 -1.30022,-0.009 -4.21496,0.31425 -8.7981,0.97823 -4.66235,0.65293 -7.96547,0.85025 -9.85811,0.58191 -2.47455,-0.33359 -4.31296,-1.20687 -5.50219,-2.62277 -1.16955,-1.45486 -1.70615,-3.36101 -1.6055,-5.71405 0.11066,-2.58727 0.98938,-5.26553 2.6299,-8.02325 1.63331,-2.76704 3.93546,-5.20776 6.88981,-7.3163 2.92437,-2.08706 6.10959,-3.68629 9.54514,-4.80289 3.73417,-1.21355 6.95256,-1.6764 9.67174,-1.40314 2.71354,0.24111 4.74038,1.2401 6.09593,2.99099 1.34737,1.74054 2.00623,3.99597 1.98262,6.77198 0,0 -6.09651,2.60049 -6.09651,2.60049 -0.18955,-2.95073 -1.21013,-4.88279 -3.07202,-5.79719 -1.85368,-0.9288 -4.69831,-0.75421 -8.56449,0.54284 -4.08563,1.37076 -7.14025,3.12786 -9.12755,5.2664 -1.97564,2.12172 -3.01393,4.23619 -3.10508,6.33219 -0.0791,1.81894 0.54044,3.07201 1.85357,3.75713 1.28259,0.69019 4.67701,0.64559 10.10464,-0.11947 5.34263,-0.7802 8.93398,-1.08146 10.84338,-0.91644 2.75107,0.25585 4.73124,1.12909 5.95781,2.61573 1.22086,1.45698 1.76901,3.46062 1.6494,6.01574 -0.1186,2.53213 -0.94842,5.20939 -2.49525,8.04338 -1.55363,2.82644 -3.73654,5.44168 -6.56422,7.85328 -2.8332,2.40487 -6.02767,4.35378 -9.59681,5.84304 -4.59226,1.91617 -8.47734,2.8927 -11.62468,2.90537 -3.16083,0.003 -5.6349,-0.94648 -7.40362,-2.85854 -1.75595,-1.95908 -2.61554,-4.6334 -2.56922,-8.01508"
         inkscape:connector-curvature="0" />
      <path
         id="path4070"
         d="m 236.37863,757.7045 c 0,0 -0.36817,-5.1154 -0.36817,-5.1154 1.21059,-0.18814 2.2686,-0.478 3.17598,-0.86923 1.23223,-0.53129 2.22392,-1.16508 2.97792,-1.90174 0.75191,-0.73464 1.37829,-1.57876 1.8801,-2.53267 0.37073,-0.71226 0.9932,-2.35098 1.86608,-4.912 0.11561,-0.35576 0.29851,-0.88292 0.54855,-1.58116 0,0 -10.78941,-29.1258 -10.78941,-29.1258 0,0 6.05248,-2.12617 6.05248,-2.12617 0,0 5.78308,17.00955 5.78308,17.00955 0.74005,2.11313 1.38163,4.37884 1.92558,6.79742 0.74048,-2.82828 1.59495,-5.6355 2.56242,-8.41975 0,0 7.55919,-21.65082 7.55919,-21.65082 0,0 5.11898,-1.79824 5.11898,-1.79824 0,0 -13.29433,37.75537 -13.29433,37.75537 -1.45884,4.16514 -2.58087,7.09237 -3.36286,8.77142 -1.04677,2.26616 -2.21304,4.10084 -3.50066,5.50326 -1.29473,1.42997 -2.81854,2.53356 -4.57584,3.30972 -1.06839,0.47186 -2.25417,0.76762 -3.55909,0.88624"
         inkscape:connector-curvature="0" />
      <path
         id="path4072"
         d="m 265.79605,723.30152 c 0,0 4.95648,-2.78858 4.95648,-2.78858 0.16376,2.03029 0.83401,3.36465 2.00627,4.00299 1.18398,0.62765 2.87257,0.49152 5.05557,-0.39974 2.18074,-0.89033 3.81142,-2.03368 4.90351,-3.43173 1.08853,-1.41166 1.66583,-2.77585 1.73532,-4.09728 0.0623,-1.1857 -0.34483,-1.93934 -1.22409,-2.26167 -0.61639,-0.21729 -2.1864,-0.18848 -4.72955,0.0892 -3.46998,0.37566 -5.9019,0.47466 -7.26274,0.29196 -1.34962,-0.21081 -2.36215,-0.82049 -3.03329,-1.83061 -0.65383,-1.04055 -0.94159,-2.35034 -0.86165,-3.92724 0.0728,-1.4358 0.4362,-2.86833 1.08918,-4.29493 0.67099,-1.45022 1.54086,-2.7607 2.60748,-3.93031 0.79815,-0.89414 1.86099,-1.78115 3.18509,-2.65957 1.33602,-0.89992 2.74285,-1.60749 4.21896,-2.1239 2.20595,-0.77166 4.10322,-1.088 5.69857,-0.95502 1.6013,0.12604 2.75092,0.65579 3.45547,1.58745 0.70305,0.90905 1.14498,2.30764 1.3274,4.19581 0,0 -4.54897,2.36343 -4.54897,2.36343 -0.12314,-1.52547 -0.66279,-2.5562 -1.62204,-3.09255 -0.9461,-0.54497 -2.34118,-0.48805 -4.19288,0.17643 -2.20546,0.79148 -3.81303,1.76976 -4.81026,2.93263 -1.00104,1.16735 -1.53118,2.30362 -1.58758,3.40528 -0.0359,0.70097 0.13157,1.25783 0.50186,1.67014 0.36859,0.4316 0.96732,0.6784 1.79446,0.74081 0.47473,0.0176 1.87355,-0.0587 4.17991,-0.22763 3.29808,-0.26278 5.56041,-0.31708 6.81681,-0.16637 1.26741,0.12401 2.23222,0.64515 2.89815,1.56163 0.66362,0.91344 0.94761,2.25477 0.85366,4.0258 -0.0919,1.73191 -0.62582,3.54761 -1.60426,5.4526 -0.96387,1.88538 -2.31496,3.60467 -4.05994,5.16118 -1.75633,1.54804 -3.7306,2.7815 -5.92861,3.6985 -3.6849,1.53734 -6.49207,1.87039 -8.39092,0.97559 -1.89674,-0.91003 -3.04296,-2.95768 -3.42737,-6.14427"
         inkscape:connector-curvature="0" />
      <path
         id="path4074"
         d="m 303.83536,712.48181 c 0,0 0.37283,4.18516 0.37283,4.18516 -1.21714,0.79727 -2.30516,1.39622 -3.26227,1.79495 -1.57202,0.6549 -2.78284,0.87405 -3.62681,0.65341 -0.84733,-0.22149 -1.42657,-0.73165 -1.73561,-1.53085 -0.30858,-0.81957 -0.38049,-2.76745 -0.21523,-5.84406 0,0 0.93701,-17.444 0.93701,-17.444 0,0 -3.27253,1.17759 -3.27253,1.17759 0,0 0.21531,-4.03421 0.21531,-4.03421 0,0 3.27242,-1.14957 3.27242,-1.14957 0,0 0.40475,-7.53524 0.40475,-7.53524 0,0 4.53027,-4.53166 4.53027,-4.53166 0,0 -0.57065,10.53374 -0.57065,10.53374 0,0 4.32966,-1.52097 4.32966,-1.52097 0,0 -0.21478,3.93173 -0.21478,3.93173 0,0 -4.32989,1.55806 -4.32989,1.55806 0,0 -0.95151,17.56395 -0.95151,17.56395 -0.0785,1.44893 -0.0565,2.35096 0.066,2.70624 0.13843,0.34853 0.36967,0.57647 0.69346,0.68387 0.3393,0.10077 0.82852,0.0211 1.46673,-0.23831 0.47747,-0.19407 1.10818,-0.51433 1.89089,-0.95983"
         inkscape:connector-curvature="0" />
      <path
         id="path4076"
         d="m 324.52373,699.3567 c 0,0 3.94711,-0.96397 3.94711,-0.96397 -0.78774,3.12871 -2.07453,5.83695 -3.86918,8.1323 -1.80836,2.31286 -4.06755,4.03905 -6.7926,5.17594 -3.48102,1.45228 -6.21199,1.31417 -8.16587,-0.44479 -1.95699,-1.80138 -2.81103,-5.10925 -2.5472,-9.91377 0.27329,-4.97667 1.55996,-9.23484 3.84435,-12.74681 2.264,-3.4806 5.05042,-5.79071 8.33711,-6.94049 3.13566,-1.0969 5.5903,-0.68175 7.38461,1.21996 1.77721,1.88367 2.52638,5.146 2.26036,9.7969 -0.0162,0.28282 -0.0475,0.70969 -0.094,1.28064 0,0 -17.4756,6.75296 -17.4756,6.75296 -0.025,3.1553 0.595,5.3135 1.85374,6.4722 1.25062,1.15127 2.8696,1.31722 4.84951,0.50888 1.46222,-0.59698 2.72889,-1.56983 3.80371,-2.91699 1.06995,-1.34109 1.95714,-3.1452 2.66393,-5.41296 m -12.71532,-2.82009 c 0,0 13.20055,-4.98236 13.20055,-4.98236 -0.037,-2.32829 -0.42558,-3.9438 -1.16784,-4.84695 -1.14463,-1.41392 -2.72348,-1.76392 -4.74525,-1.03841 -1.84623,0.66257 -3.45655,1.9839 -4.82489,3.96797 -1.36066,1.98947 -2.18337,4.29205 -2.46257,6.89975"
         inkscape:connector-curvature="0" />
      <path
         id="path4078"
         d="m 332.75047,704.85491 c 0,0 1.60698,-27.85643 1.60698,-27.85643 0,0 3.31126,-1.16321 3.31126,-1.16321 0,0 -0.22564,3.88806 -0.22564,3.88806 0.75785,-1.5991 1.72072,-3.00375 2.88576,-4.21278 1.16,-1.21995 2.44258,-2.07414 3.84506,-2.56479 1.55007,-0.54222 2.78447,-0.56554 3.70849,-0.0748 0.93233,0.48379 1.55178,1.39782 1.86132,2.74163 1.79464,-3.7102 3.96198,-6.00121 6.48777,-6.88482 1.95359,-0.68338 3.39914,-0.47822 4.34699,0.606 0.94357,1.06189 1.32306,3.08139 1.14248,6.06147 0,0 -1.08274,17.86529 -1.08274,17.86529 0,0 -3.26728,1.35838 -3.26728,1.35838 0,0 0.99591,-16.52557 0.99591,-16.52557 0.10737,-1.782 0.0741,-3.02061 -0.1,-3.71599 -0.16109,-0.7172 -0.51029,-1.21346 -1.04864,-1.48872 -0.54,-0.27602 -1.19542,-0.27605 -1.96728,10e-4 -1.40198,0.50383 -2.61107,1.55363 -3.62322,3.15198 -1.01563,1.58859 -1.60715,3.76709 -1.77114,6.52905 0,0 -0.92376,15.55614 -0.92376,15.55614 0,0 -3.48391,1.44845 -3.48391,1.44845 0,0 1.03555,-17.54652 1.03555,-17.54652 0.1203,-2.03862 -0.0757,-3.46358 -0.58922,-4.27602 -0.51511,-0.81486 -1.42989,-0.98725 -2.74951,-0.51307 -1.0086,0.36246 -1.96875,1.04502 -2.87952,2.04935 -0.90101,1.00357 -1.58757,2.24524 -2.05755,3.72378 -0.47075,1.48094 -0.77945,3.48015 -0.92548,5.99483 0,0 -0.83096,14.30805 -0.83096,14.30805 0,0 -3.70172,1.539 -3.70172,1.539"
         inkscape:connector-curvature="0" />
    </g>
    <path
       d="m 220.97131,180.34039 v 37.11706 l 92.89228,92.79126 v 74.23411 c 14.04223,6.47494 22.29399,7.42341 37.15528,0 v -74.23411 l 92.89228,-92.79126 V 180.34039 H 220.97131 z"
       id="path2818"
       inkscape:connector-curvature="0"
       style="fill:url(#linearGradient4495);stroke:#0ea6ff;stroke-width:2.18415903999999994;fill-opacity:1;stroke-opacity:1" />
    <path
       d="m 444.4599,180.81345 c -2.49846,17.96951 -54.67522,31.94874 -116.54326,31.22301 -61.86554,-0.72573 -109.99449,-15.88166 -107.49177,-33.85117 2.49846,-17.96951 54.67523,-31.94874 116.54326,-31.22301 60.26547,0.70694 107.80044,15.13683 107.58354,32.65661"
       id="path2816"
       inkscape:connector-curvature="0"
       style="fill:url(#linearGradient4492);stroke:#0ea6ff;stroke-width:2.18418740999999983;stroke-linecap:round;stroke-linejoin:round;stroke-opacity:1" />
    <path
       sodipodi:type="arc"
       style="opacity:0.34300005;fill:#0000ff;stroke:#0ea6ff;stroke-width:2.29999995;stroke-miterlimit:4;stroke-opacity:1;stroke-dasharray:none;stroke-dashoffset:0"
       id="path5265"
       sodipodi:cx="87.14286"
       sodipodi:cy="68.790756"
       sodipodi:rx="148.57143"
       sodipodi:ry="65"
       d="m 229.28259,49.872914 a 148.57143,65 0 1 1 -4.89882,-5.978951"
       sodipodi:start="5.9878677"
       sodipodi:end="12.173299"
       sodipodi:open="true"
       transform="matrix(0.82352806,0,0,0.82352806,13.235412,63.568674)" />
    <path
       transform="matrix(0.85691464,0,0,0.85691464,247.32601,-49.445023)"
       sodipodi:type="arc"
       style="opacity:0.34300005;fill:#0000ff;stroke:#0ea6ff;stroke-width:2.29999995;stroke-miterlimit:4;stroke-opacity:1;stroke-dasharray:none;stroke-dashoffset:0"
       id="path5265-6"
       sodipodi:cx="87.14286"
       sodipodi:cy="68.790756"
       sodipodi:rx="218.59007"
       sodipodi:ry="95.223885"
       d="m 296.27011,41.076442 a 218.59007,95.223885 0 1 1 -7.20753,-8.75906"
       sodipodi:start="5.9878677"
       sodipodi:end="12.173299"
       sodipodi:open="true" />
    <path
       transform="matrix(0.85691464,0,0,0.85691464,509.61172,49.126405)"
       sodipodi:type="arc"
       style="opacity:0.34300005;fill:#0000ff;stroke:#0ea6ff;stroke-width:2.29999995;stroke-miterlimit:4;stroke-opacity:1;stroke-dasharray:none;stroke-dashoffset:0"
       id="path5265-6-3"
       sodipodi:cx="87.14286"
       sodipodi:cy="68.790756"
       sodipodi:rx="148.57143"
       sodipodi:ry="65"
       d="m 229.28259,49.872914 a 148.57143,65 0 1 1 -4.89882,-5.978951"
       sodipodi:start="5.9878677"
       sodipodi:end="12.173299"
       sodipodi:open="true" />
    <g
       transform="translate(87.4489,67.979037)"
       id="layer1-9">
      <g
         transform="translate(4.9761,11.611)"
         id="g3363"
         style="fill-rule:evenodd">
        <path
           d="m 516.43,463.79 v -70 h 92.86 l -22.16,-38.37 133.98,72.49 -129.35,76.5 18.45,-40.08 -93.78,-0.54 z"
           id="path2388"
           inkscape:connector-curvature="0"
           style="fill:#1247fd;stroke:#000000;stroke-width:5.4000001" />
        <path
           d="m 649.91,420.22 c 29.69,0.04 25.39,-0.08 55.09,0.05 l 14.29,9.95 -14.29,7.8 -55.09,0.06 c -41.03,0 -134.05,11.97 -134.05,11.94 v -45.75 c 0,0 93.02,15.95 134.05,15.95 z"
           id="rect3160"
           inkscape:connector-curvature="0"
           style="opacity:0.95455005;fill:#ffffff;filter:url(#filter3347)" />
      </g>
    </g>
    <text
       xml:space="preserve"
       style="font-size:29.08665848px;font-style:normal;font-variant:normal;font-weight:normal;font-stretch:normal;text-align:center;line-height:125%;letter-spacing:0px;word-spacing:0px;text-anchor:middle;fill:#000000;fill-opacity:1;stroke:none;font-family:Arial;-inkscape-font-specification:Arial"
       x="317.77188"
       y="-22.123905"
       id="text5422"
       sodipodi:linespacing="125%"><tspan
         sodipodi:role="line"
         id="tspan5424"
         x="317.77188"
         y="-22.123905">Knowledge:</tspan><tspan
         sodipodi:role="line"
         x="317.77188"
         y="14.234418"
         id="tspan5436">Characteristic patterns from</tspan><tspan
         sodipodi:role="line"
         x="317.77188"
         y="50.592739"
         id="tspan3051">relevant events</tspan></text>
    <text
       xml:space="preserve"
       style="font-size:30.85776329px;font-style:normal;font-variant:normal;font-weight:normal;font-stretch:normal;text-align:center;line-height:125%;letter-spacing:0px;word-spacing:0px;text-anchor:middle;fill:#000000;fill-opacity:1;stroke:none;font-family:Arial;-inkscape-font-specification:Arial"
       x="85.645096"
       y="120.05169"
       id="text5426"
       sodipodi:linespacing="125%"><tspan
         sodipodi:role="line"
         id="tspan5428"
         x="85.645088"
         y="120.05169">Trends, patterns</tspan><tspan
         sodipodi:role="line"
         x="85.645096"
         y="158.62389"
         id="tspan5430">periodicity</tspan></text>
    <text
       xml:space="preserve"
       style="font-size:33.04126358px;font-style:normal;font-variant:normal;font-weight:normal;font-stretch:normal;text-align:center;line-height:125%;letter-spacing:0px;word-spacing:0px;text-anchor:middle;fill:#000000;fill-opacity:1;stroke:none;font-family:Arial;-inkscape-font-specification:Arial"
       x="581.60187"
       y="115.58587"
       id="text5432"
       sodipodi:linespacing="125%"><tspan
         sodipodi:role="line"
         id="tspan5434"
         x="586.18378"
         y="115.58587">Current Stimuli </tspan></text>
    <g
       style="fill-rule:evenodd;stroke:#000000;stroke-width:6.80000019"
       id="g3236"
       transform="matrix(0.54500208,0.21696926,-0.21696926,0.54500208,71.611233,-184.76875)">
      <path
         style="fill:#8e8e8e;filter:url(#filter3232)"
         inkscape:connector-curvature="0"
         id="path2388-0"
         d="m 385.54,459.3 c 63.33,-11.33 101.34,-9.38 125.15,0 -4.08,14 -19.27,24.52 -33.23,36.77 27.4,-13.11 55.19,-25.08 84.15,-36.07 -8.34,-34.82 -36.77,-54.13 -60.81,-78.48 3.52,8.18 8.64,17.16 12.08,25.32 1.73,4.09 2.49,7.79 1.35,10.74 -41.72,-13.9 -83.44,-13.43 -125.16,-2.83 l -3.53,44.55 z" />
      <path
         style="fill:#0c3bfe"
         inkscape:connector-curvature="0"
         id="path3194"
         d="m 384.11,448.58 c 63.34,-11.32 101.34,-9.38 125.16,0 -4.09,14.01 -19.27,24.53 -33.24,36.77 27.4,-13.1 55.19,-25.08 84.15,-36.06 -8.34,-34.83 -36.77,-54.14 -60.81,-78.49 3.52,8.19 8.65,17.16 12.08,25.32 1.73,4.09 2.49,7.8 1.35,10.74 -41.72,-13.89 -83.44,-13.43 -125.16,-2.83 l -3.53,44.55 z" />
    </g>
    <g
       style="fill-rule:evenodd;stroke:#000000;stroke-width:6.80000019"
       id="g3248"
       transform="matrix(0.51841702,-0.27160628,0.27160628,0.51841702,265.20004,-64.499819)">
      <path
         style="fill:#8e8e8e;filter:url(#filter3232)"
         inkscape:connector-curvature="0"
         id="path3242"
         transform="matrix(-1,0,0,1,550.71,3.9286)"
         d="m 385.54,459.3 c 63.33,-11.33 101.34,-9.38 125.15,0 -4.08,14 -19.27,24.52 -33.23,36.77 27.4,-13.11 55.19,-25.08 84.15,-36.07 -8.34,-34.82 -36.77,-54.13 -60.81,-78.48 3.52,8.18 8.64,17.16 12.08,25.32 1.73,4.09 2.49,7.79 1.35,10.74 -41.72,-13.9 -83.44,-13.43 -125.16,-2.83 l -3.53,44.55 z" />
      <path
         style="fill:#0c3bfe"
         inkscape:connector-curvature="0"
         id="path3244"
         d="m 155.89,452.51 c -63.335,-11.32 -101.34,-9.38 -125.16,0 4.091,14.01 19.274,24.53 33.238,36.77 -27.399,-13.1 -55.193,-25.08 -84.146,-36.06 8.337,-34.83 36.766,-54.14 60.812,-78.49 -3.521,8.19 -8.649,17.16 -12.088,25.32 -1.725,4.09 -2.491,7.8 -1.347,10.74 41.719,-13.89 83.441,-13.43 125.16,-2.83 l 3.53,44.55 z" />
    </g>
    <g
       style="fill-rule:evenodd;stroke:#000000;stroke-width:6.80000019"
       id="g3272"
       transform="matrix(0.587891,0,0,0.587891,187.64728,-137.73846)">
      <path
         style="fill:#8e8e8e;filter:url(#filter3232)"
         inkscape:connector-curvature="0"
         id="path3266"
         transform="matrix(0,1,1,0,-202.72,-32.281)"
         d="m 385.54,459.3 c 63.33,-11.33 101.34,-9.38 125.15,0 -4.08,14 -19.27,24.52 -33.23,36.77 27.4,-13.11 55.19,-25.08 84.15,-36.07 -8.34,-34.82 -36.77,-54.13 -60.81,-78.48 3.52,8.18 8.64,17.16 12.08,25.32 1.73,4.09 2.49,7.79 1.35,10.74 -41.72,-13.9 -83.44,-13.43 -125.16,-2.83 l -3.53,44.55 z" />
      <path
         style="fill:#0c3bfe"
         inkscape:connector-curvature="0"
         id="path3268"
         d="m 246.58,341.83 c -11.33,63.33 -9.38,101.34 0,125.16 14,-4.09 24.53,-19.27 36.77,-33.24 -13.11,27.4 -25.08,55.19 -36.07,84.15 -34.82,-8.34 -54.13,-36.77 -78.48,-60.81 8.19,3.52 17.16,8.64 25.32,12.08 4.09,1.73 7.79,2.49 10.74,1.35 -13.9,-41.72 -13.43,-83.44 -2.83,-125.16 l 44.55,-3.53 z" />
    </g>
  </g>
</svg>
