<?xml version="1.0" encoding="UTF-8"?>
<svg xmlns:rdf="http://www.w3.org/1999/02/22-rdf-syntax-ns#" xmlns="http://www.w3.org/2000/svg" xmlns:cc="http://creativecommons.org/ns#" xmlns:dc="http://purl.org/dc/elements/1.1/" xmlns:svg="http://www.w3.org/2000/svg" id="svg2413" viewBox="0 0 699.04 211.13" version="1.0">
  <defs id="defs2415">
    <filter id="filter3232">
      <feGaussianBlur id="feGaussianBlur3234" stdDeviation="4.3283459"/>
    </filter>
  </defs>
  <g id="layer1" stroke-width="6.8" stroke="#000" transform="translate(31.32 -330.1)" fill-rule="evenodd">
    <g id="g3236" transform="translate(91.429 4.2857)">
      <path id="path2388" filter="url(#filter3232)" fill="#8e8e8e" d="m385.54 459.3c63.33-11.33 101.34-9.38 125.15 0-4.08 14-19.27 24.52-33.23 36.77 27.4-13.11 55.19-25.08 84.15-36.07-8.34-34.82-36.77-54.13-60.81-78.48 3.52 8.18 8.64 17.16 12.08 25.32 1.73 4.09 2.49 7.79 1.35 10.74-41.72-13.9-83.44-13.43-125.16-2.83l-3.53 44.55z"/>
      <path id="path3194" fill="#0c3bfe" d="m384.11 448.58c63.34-11.32 101.34-9.38 125.16 0-4.09 14.01-19.27 24.53-33.24 36.77 27.4-13.1 55.19-25.08 84.15-36.06-8.34-34.83-36.77-54.14-60.81-78.49 3.52 8.19 8.65 17.16 12.08 25.32 1.73 4.09 2.49 7.8 1.35 10.74-41.72-13.89-83.44-13.43-125.16-2.83l-3.53 44.55z"/>
    </g>
    <g id="g3248">
      <path id="path3242" filter="url(#filter3232)" transform="matrix(-1 0 0 1 550.71 3.9286)" fill="#8e8e8e" d="m385.54 459.3c63.33-11.33 101.34-9.38 125.15 0-4.08 14-19.27 24.52-33.23 36.77 27.4-13.11 55.19-25.08 84.15-36.07-8.34-34.82-36.77-54.13-60.81-78.48 3.52 8.18 8.64 17.16 12.08 25.32 1.73 4.09 2.49 7.79 1.35 10.74-41.72-13.9-83.44-13.43-125.16-2.83l-3.53 44.55z"/>
      <path id="path3244" fill="#0c3bfe" d="m155.89 452.51c-63.335-11.32-101.34-9.38-125.16 0 4.091 14.01 19.274 24.53 33.238 36.77-27.399-13.1-55.193-25.08-84.146-36.06 8.337-34.83 36.766-54.14 60.812-78.49-3.521 8.19-8.649 17.16-12.088 25.32-1.725 4.09-2.491 7.8-1.347 10.74 41.719-13.89 83.441-13.43 125.16-2.83l3.53 44.55z"/>
    </g>
    <g id="g3260" transform="translate(70)">
      <path id="path3254" filter="url(#filter3232)" transform="matrix(0 -1 -1 0 769.15 914.15)" fill="#8e8e8e" d="m385.54 459.3c63.33-11.33 101.34-9.38 125.15 0-4.08 14-19.27 24.52-33.23 36.77 27.4-13.11 55.19-25.08 84.15-36.07-8.34-34.82-36.77-54.13-60.81-78.48 3.52 8.18 8.64 17.16 12.08 25.32 1.73 4.09 2.49 7.79 1.35 10.74-41.72-13.9-83.44-13.43-125.16-2.83l-3.53 44.55z"/>
      <path id="path3256" fill="#0c3bfe" d="m301.99 519.33c11.33-63.34 9.38-101.35 0-125.16-14 4.09-24.52 19.27-36.77 33.23 13.11-27.4 25.08-55.19 36.07-84.14 34.82 8.33 54.13 36.76 78.49 60.81-8.19-3.52-17.17-8.65-25.33-12.09-4.09-1.73-7.79-2.49-10.74-1.35 13.9 41.72 13.43 83.44 2.83 125.16l-44.55 3.54z"/>
    </g>
    <g id="g3272" transform="translate(23.571)">
      <path id="path3266" filter="url(#filter3232)" transform="matrix(0 1 1 0 -202.72 -32.281)" fill="#8e8e8e" d="m385.54 459.3c63.33-11.33 101.34-9.38 125.15 0-4.08 14-19.27 24.52-33.23 36.77 27.4-13.11 55.19-25.08 84.15-36.07-8.34-34.82-36.77-54.13-60.81-78.48 3.52 8.18 8.64 17.16 12.08 25.32 1.73 4.09 2.49 7.79 1.35 10.74-41.72-13.9-83.44-13.43-125.16-2.83l-3.53 44.55z"/>
      <path id="path3268" fill="#0c3bfe" d="m246.58 341.83c-11.33 63.33-9.38 101.34 0 125.16 14-4.09 24.53-19.27 36.77-33.24-13.11 27.4-25.08 55.19-36.07 84.15-34.82-8.34-54.13-36.77-78.48-60.81 8.19 3.52 17.16 8.64 25.32 12.08 4.09 1.73 7.79 2.49 10.74 1.35-13.9-41.72-13.43-83.44-2.83-125.16l44.55-3.53z"/>
    </g>
  </g>
  <metadata>
    <rdf:RDF>
      <cc:Work>
        <dc:format>image/svg+xml</dc:format>
        <dc:type rdf:resource="http://purl.org/dc/dcmitype/StillImage"/>
        <cc:license rdf:resource="http://creativecommons.org/licenses/publicdomain/"/>
        <dc:publisher>
          <cc:Agent rdf:about="http://openclipart.org/">
            <dc:title>Openclipart</dc:title>
          </cc:Agent>
        </dc:publisher>
        <dc:title>Arrow set (Comic)</dc:title>
        <dc:date>2008-02-29T18:02:08</dc:date>
        <dc:description>A Comic arrow set... in blue! Enjoy!</dc:description>
        <dc:source>http://openclipart.org/detail/15192/arrow-set-(comic)-by-mystica-15192</dc:source>
        <dc:creator>
          <cc:Agent>
            <dc:title>mystica</dc:title>
          </cc:Agent>
        </dc:creator>
        <dc:subject>
          <rdf:Bag>
            <rdf:li>arrow</rdf:li>
            <rdf:li>arrows</rdf:li>
            <rdf:li>blue</rdf:li>
            <rdf:li>clip art</rdf:li>
            <rdf:li>clipart</rdf:li>
            <rdf:li>image</rdf:li>
            <rdf:li>media</rdf:li>
            <rdf:li>png</rdf:li>
            <rdf:li>public domain</rdf:li>
            <rdf:li>sign</rdf:li>
            <rdf:li>svg</rdf:li>
          </rdf:Bag>
        </dc:subject>
      </cc:Work>
      <cc:License rdf:about="http://creativecommons.org/licenses/publicdomain/">
        <cc:permits rdf:resource="http://creativecommons.org/ns#Reproduction"/>
        <cc:permits rdf:resource="http://creativecommons.org/ns#Distribution"/>
        <cc:permits rdf:resource="http://creativecommons.org/ns#DerivativeWorks"/>
      </cc:License>
    </rdf:RDF>
  </metadata>
</svg>